<svg xmlns="http://www.w3.org/2000/svg" viewBox="0 0 199.232 100.125">
  <defs>
    <style>
      .cls-1 {
        fill: #007647;
      }

      .cls-2 {
        fill: #00703c;
      }

      .cls-3 {
        fill: #fff;
      }

      .cls-4 {
        fill: #5f6062;
      }
    </style>
  </defs>
  <g id="Group_37" data-name="Group 37" transform="translate(0 0.009)">
    <g id="Group_6" data-name="Group 6" transform="translate(19.288 -0.009)">
      <g id="Group_1" data-name="Group 1" transform="translate(135.001 94.596)">
        <path id="Path_1" data-name="Path 1" class="cls-1" d="M367.377,224.754a1.7,1.7,0,0,1-1.738,1.654,1.656,1.656,0,1,1,0-3.307A1.7,1.7,0,0,1,367.377,224.754Z" transform="translate(-363.9 -223.1)"/>
      </g>
      <g id="Group_4" data-name="Group 4">
        <g id="Group_2" data-name="Group 2">
          <path id="Path_2" data-name="Path 2" class="cls-2" d="M142.377,9.365C97.646-6.7,54.866-1.617,46.81,20.812c-8.056,22.387,21.666,53.592,66.4,69.7,26.033,9.37,51.3,11.49,69.576,7.293l-.721-3.18c-17.468,4.028-42.1,2.374-67.372-6.614C71.91,72.751,43.461,43.072,51.05,21.66,58.682.249,99.512-4.754,142.25,10.467s71.188,44.9,63.6,66.312c-1.442,4.07-5.173,8.946-11.7,12.889l1.781,2.926c7.293-4.494,11.32-9.243,12.847-13.483C216.83,56.682,187.108,25.476,142.377,9.365Z" transform="translate(-45.493 0.009)"/>
        </g>
        <g id="Group_3" data-name="Group 3" transform="translate(137.258 90.791)">
          <path id="Path_3" data-name="Path 3" class="cls-2" d="M378.923,215.727s-12.508-3.265-9.116-.466c4.028,3.307,1.908,7.5,2.544,8.183C373.369,223.867,378.372,216.363,378.923,215.727Z" transform="translate(-369.224 -214.127)"/>
        </g>
      </g>
      <g id="Group_5" data-name="Group 5" transform="translate(147.805 89.466)">
        <path id="Path_4" data-name="Path 4" class="cls-1" d="M397.492,212.7a1.7,1.7,0,1,1-1.7-1.7A1.7,1.7,0,0,1,397.492,212.7Z" transform="translate(-394.1 -211)"/>
      </g>
    </g>
    <g id="Group_14" data-name="Group 14" transform="translate(0 22.042)">
      <g id="Group_7" data-name="Group 7" transform="translate(92.217 12.889)">
        <path id="Path_5" data-name="Path 5" class="cls-2" d="M240.775,99.172c0-4.961-2.2-6.233-4.621-6.233-3.858,0-5.257,3.35-5.257,8.437v22.217h-12V92.261a80.656,80.656,0,0,0-.3-8.268h10.939c.17,1.738.3,3.943.3,6.614h.17c1.823-4.325,4.876-7.208,11.193-7.208,8.734,0,11.617,6.4,11.617,14.288v25.948h-12V99.172Z" transform="translate(-218.134 -82.976)"/>
        <path id="Path_6" data-name="Path 6" class="cls-3" d="M252.564,123.442H239.717V98.6c0-3.9-1.4-5.809-4.2-5.809-3.307,0-4.833,2.544-4.833,8.013v22.641H217.839V91.685a76.526,76.526,0,0,0-.3-8.225l-.042-.466h11.829l.042.382c.127,1.314.254,3.053.3,5.13,2.2-4.2,5.639-6.105,10.939-6.105,7.886,0,12.041,5.088,12.041,14.712v26.33Zm-12-.848h11.151V97.07c0-9.2-3.773-13.864-11.193-13.864-5.427,0-8.777,2.162-10.769,6.953l-.127.254h-.848v-.424c0-2.544-.127-4.621-.254-6.19H218.433c.17,1.908.254,4.155.254,7.844v30.909h11.151V100.759c0-5.893,1.908-8.861,5.681-8.861,4.2,0,5.045,3.6,5.045,6.657Z" transform="translate(-217.5 -82.4)"/>
      </g>
      <g id="Group_8" data-name="Group 8" transform="translate(157.596 13.44)">
        <path id="Path_7" data-name="Path 7" class="cls-2" d="M372.6,84.7h12.041v39.6h-12V84.7Z" transform="translate(-372.218 -84.276)"/>
        <path id="Path_8" data-name="Path 8" class="cls-3" d="M384.547,124.191H371.7V83.7h12.847Zm-12.041-.848H383.7V84.548H372.548v38.795Z" transform="translate(-371.7 -83.7)"/>
      </g>
      <g id="Group_9" data-name="Group 9" transform="translate(55.076 12.847)">
        <path id="Path_9" data-name="Path 9" class="cls-2" d="M135.267,85.8c3.137-.975,8.437-2.5,12.762-2.5,13.907,0,17.087,5.766,17.087,14.585v14.458c0,5.851.085,8.522.3,11.193H154.474l-.3-5.469h-.17c-.551,2.417-5.173,6.063-10.854,6.063-7.377,0-12.253-4.791-12.253-12,0-13.228,15.433-13.313,19.631-13.313h3.646c0-7.589-5.639-7.589-7.377-7.589-3.053,0-6.317.678-11.024,3.519Zm18.91,18.613c-4.791,0-12.338.3-12.338,6.911,0,5.173,4.2,5.173,5.173,5.173,1.06,0,7.165-.17,7.165-9.794v-2.29Z" transform="translate(-130.476 -82.876)"/>
        <path id="Path_10" data-name="Path 10" class="cls-3" d="M142.577,123.978c-7.589,0-12.677-5-12.677-12.423,0-11.363,10.9-13.737,20.055-13.737h3.222c-.212-6.741-5.257-6.741-6.953-6.741-2.5,0-5.724.424-10.812,3.434l-.594.339-.594-9.921.3-.085c5.3-1.7,9.625-2.544,12.889-2.544,12.465,0,17.511,4.367,17.511,15.009v14.458c0,5.766.085,8.48.3,11.151l.042.466H153.431l-.254-4.452a9.671,9.671,0,0,1-3.1,2.841A13.645,13.645,0,0,1,142.577,123.978Zm7.377-25.312c-12.72,0-19.207,4.325-19.207,12.889,0,7.038,4.621,11.575,11.829,11.575,5.342,0,9.964-3.434,10.473-5.766l.085-.339h.89l.3,5.469h10.091c-.212-2.544-.254-5.3-.254-10.769V97.267c0-11.744-6.657-14.161-16.663-14.161a44.347,44.347,0,0,0-12.338,2.374l.466,7.886c3.9-2.247,7.123-3.222,10.642-3.222,5.173,0,7.8,2.714,7.8,8.013v.424h-4.113Zm-3.477,17.723c-3.6,0-5.6-1.993-5.6-5.6,0-7.335,8.607-7.335,12.762-7.335h.424v2.714C154.025,115.625,148.259,116.389,146.478,116.389Zm6.7-12.084c-10.091.085-11.49,3.307-11.49,6.487,0,3.138,1.611,4.749,4.749,4.749,2.035,0,6.741-.933,6.741-9.37V104.3Z" transform="translate(-129.9 -82.3)"/>
      </g>
      <g id="Group_10" data-name="Group 10" transform="translate(171.885 1.442)">
        <path id="Path_11" data-name="Path 11" class="cls-2" d="M406.4,68.572h6.826V60.431l11.7-3.731V68.572h7.759v8.437h-7.759V95.2c0,3.9,1.738,4.961,4.028,4.961a8.6,8.6,0,0,0,3.943-.848v8.437a28.4,28.4,0,0,1-8.353,1.06c-6.233,0-11.617-3.053-11.617-11.7V77.051H406.4Z" transform="translate(-405.976 -56.149)"/>
        <path id="Path_12" data-name="Path 12" class="cls-3" d="M423.971,108.483c-7.674,0-12.041-4.409-12.041-12.126V76.727H405.4V67.4h6.826V59.385l12.55-3.985v12h7.759v9.285h-7.759V94.449c0,3.985,1.908,4.537,3.6,4.537a8.286,8.286,0,0,0,3.773-.806l.594-.254v9.37l-.254.085A27.519,27.519,0,0,1,423.971,108.483ZM406.248,75.836h6.529V96.357c0,9.837,7.038,11.278,11.193,11.278a30.686,30.686,0,0,0,7.929-.933V99.2a9.323,9.323,0,0,1-3.519.636c-3.01,0-4.452-1.738-4.452-5.385V75.836h7.759V68.247h-7.759v-11.7l-10.854,3.477v8.268h-6.826Z" transform="translate(-405.4 -55.4)"/>
      </g>
      <g id="Group_11" data-name="Group 11">
        <path id="Path_13" data-name="Path 13" class="cls-2" d="M12.575,62.582H1V53H36.573v9.582H25.04v43.5H12.575Z" transform="translate(-0.576 -52.576)"/>
        <path id="Path_14" data-name="Path 14" class="cls-3" d="M24.888,105.931H11.575V62.43H0V52H36.421V62.43H24.888Zm-12.465-.848H24.04v-43.5H35.615V52.848H.848v8.734H12.423Z" transform="translate(0 -52)"/>
      </g>
      <g id="Group_12" data-name="Group 12" transform="translate(127.832 12.889)">
        <path id="Path_15" data-name="Path 15" class="cls-2" d="M328.024,93.915a25.071,25.071,0,0,0-9.667-2.12c-3.138,0-4.494,1.526-4.494,2.883,0,2.417,1.738,3.265,8.31,5.724,4.113,1.526,8.268,4.113,8.268,11.575,0,8.819-6.614,12.253-14.585,12.253a41.021,41.021,0,0,1-13.016-1.908l.3-9.285a19.819,19.819,0,0,0,9.879,2.756c5.639,0,6.021-1.993,6.021-3.731s-3.138-2.5-8.268-4.621c-4.2-1.738-8.268-5.088-8.268-12.168,0-4.24,3.053-11.872,14.84-11.872a36.445,36.445,0,0,1,11.024,1.611Z" transform="translate(-302.076 -82.976)"/>
        <path id="Path_16" data-name="Path 16" class="cls-3" d="M315.28,124.036c-2.374,0-8.353-.17-13.144-1.908l-.3-.085.339-10.3.636.382a19.154,19.154,0,0,0,9.667,2.671c5.6,0,5.6-1.993,5.6-3.307,0-1.1-1.908-1.866-5.088-3.1q-1.336-.509-2.926-1.145c-5.681-2.374-8.565-6.614-8.565-12.55,0-4.579,3.222-12.3,15.264-12.3a37.985,37.985,0,0,1,11.151,1.611l.3.085-.339,9.879-.551-.212a24.1,24.1,0,0,0-9.5-2.078c-2.8,0-4.07,1.272-4.07,2.459,0,2.12,1.526,2.883,8.013,5.3,4.24,1.569,8.565,4.2,8.565,11.956C330.331,119.414,324.819,124.036,315.28,124.036Zm-12.55-2.629a41.713,41.713,0,0,0,12.55,1.781c4.24,0,14.161-1.145,14.161-11.829,0-7.208-4.028-9.709-8.013-11.151-6.487-2.417-8.565-3.307-8.565-6.105,0-1.611,1.526-3.307,4.918-3.307a24.072,24.072,0,0,1,9.243,1.95l.254-8.056a36.139,36.139,0,0,0-10.6-1.484c-11.363,0-14.416,7.208-14.416,11.448,0,5.681,2.629,9.5,8.013,11.787q1.59.636,2.926,1.145c3.646,1.4,5.639,2.2,5.639,3.858,0,2.162-.763,4.155-6.445,4.155a20.176,20.176,0,0,1-9.5-2.459Z" transform="translate(-301.5 -82.4)"/>
      </g>
      <g id="Group_13" data-name="Group 13" transform="translate(33.113 12.889)">
        <path id="Path_17" data-name="Path 17" class="cls-2" d="M79.5,92.261a80.658,80.658,0,0,0-.3-8.268H90.139c.085,2.374.212,4.791.3,7.165h.17c2.417-4.24,4.113-7.759,11.024-7.759h1.738V94.508a16.179,16.179,0,0,0-4.028-.466c-7,0-7.844,6.063-7.844,11.872v17.723h-12Z" transform="translate(-78.734 -82.976)"/>
        <path id="Path_18" data-name="Path 18" class="cls-3" d="M91.328,123.442H78.439V91.685a76.524,76.524,0,0,0-.3-8.225l-.042-.466H89.929v.424c.042,1.187.085,2.417.17,3.6.042.763.085,1.526.085,2.29C92.346,85.538,94.424,82.4,101,82.4h2.162V94.484l-.509-.127a14.551,14.551,0,0,0-3.943-.466c-6.529,0-7.42,5.512-7.42,11.448v18.1Zm-12.041-.848H90.438V105.3c0-6.063.975-12.3,8.268-12.3a16.759,16.759,0,0,1,3.6.339V83.206H101c-6.36,0-8.056,2.926-10.345,7l-.424.763H89.42v-.424c-.042-1.145-.085-2.332-.17-3.519-.042-1.06-.085-2.162-.127-3.222H79.033c.17,1.866.254,4.155.254,7.844Z" transform="translate(-78.1 -82.4)"/>
      </g>
    </g>
    <g id="Group_21" data-name="Group 21" transform="translate(37.565 9.407)">
      <g id="Group_15" data-name="Group 15" transform="translate(35.997)">
        <path id="Path_19" data-name="Path 19" d="M174.1,22.7h3.985v9.158h.042a3.352,3.352,0,0,1,3.35-2.544c2.883,0,3.858,2.5,3.858,5.6V45.087H181.35V35.5c0-1.95-.721-2.459-1.526-2.459-1.272,0-1.738,1.314-1.738,3.307v8.734H174.1Z" transform="translate(-173.846 -22.488)"/>
        <path id="Path_20" data-name="Path 20" class="cls-3" d="M185.16,45.053H180.75V35.216c0-2.247-.975-2.247-1.314-2.247-1.018,0-1.526,1.018-1.526,3.1v8.946H173.5V22.2h4.409v8.395a3.566,3.566,0,0,1,3.18-1.781c2.671,0,4.07,2.035,4.07,5.851Zm-3.985-.424h3.561V34.623c0-3.6-1.23-5.427-3.646-5.427a3.189,3.189,0,0,0-3.138,2.374l-.042.17h-.424V22.624h-3.562v22h3.562V36.107c0-.89,0-3.519,1.95-3.519.806,0,1.738.466,1.738,2.671Z" transform="translate(-173.5 -22.2)"/>
      </g>
      <g id="Group_16" data-name="Group 16" transform="translate(48.08 6.614)">
        <path id="Path_21" data-name="Path 21" d="M203.842,39.275a13.567,13.567,0,0,1,4.2-.975c4.579,0,5.639,2.29,5.639,5.724v5.681c0,2.29.042,3.35.085,4.409h-3.6l-.085-2.162h-.042c-.17.975-1.7,2.374-3.6,2.374-2.417,0-4.028-1.866-4.028-4.706,0-5.215,5.088-5.215,6.487-5.215h1.187c0-3.01-1.866-3.01-2.417-3.01a5.986,5.986,0,0,0-3.646,1.357Zm6.275,7.335c-1.569,0-4.07.127-4.07,2.714,0,2.035,1.4,2.035,1.7,2.035.339,0,2.374-.042,2.374-3.858Z" transform="translate(-202.23 -38.088)"/>
        <path id="Path_22" data-name="Path 22" class="cls-3" d="M206.24,54.251c-2.544,0-4.24-1.993-4.24-4.918,0-2.5,1.145-5.427,6.7-5.427h.975c-.085-2.586-1.611-2.586-2.2-2.586a5.73,5.73,0,0,0-3.519,1.357l-.3.212-.212-4.028.127-.042a12.469,12.469,0,0,1,4.282-1.018c5.13,0,5.851,2.841,5.851,5.936v5.681c0,2.247.042,3.307.085,4.367V54h-4.028l-.085-1.569A4.325,4.325,0,0,1,206.24,54.251Zm2.417-9.964c-4.155,0-6.275,1.7-6.275,5,0,2.756,1.484,4.494,3.816,4.494a3.639,3.639,0,0,0,3.392-2.2l.042-.127h.424l.085,2.162h3.18c-.085-.975-.085-2.078-.085-4.2V43.736c0-3.307-.933-5.512-5.427-5.512a11.431,11.431,0,0,0-3.985.933l.17,2.968a5.9,5.9,0,0,1,3.434-1.187c1.738,0,2.629,1.06,2.629,3.222v.212h-1.4Zm-1.145,7c-1.23,0-1.908-.806-1.908-2.247,0-2.926,3.01-2.926,4.282-2.926h.212v1.1C210.1,50.986,208.105,51.283,207.512,51.283Zm2.162-4.749c-1.908.042-3.646.382-3.646,2.5,0,1.187.509,1.823,1.484,1.823.636,0,2.162-.339,2.162-3.646Z" transform="translate(-202 -37.8)"/>
      </g>
      <g id="Group_17" data-name="Group 17" transform="translate(60.503 6.657)">
        <path id="Path_23" data-name="Path 23" d="M246.288,44.433c0-1.781-.636-2.459-1.526-2.459-1.187,0-1.611,1.018-1.611,2.162v9.879h-3.943V44.433c0-1.993-.721-2.459-1.4-2.459-1.314,0-1.738,1.357-1.738,3.307v8.734h-3.985v-12.3c0-1.484-.042-2.459-.085-3.265h3.6c.042.678.085,1.569.085,2.586h.042c.594-1.7,1.611-2.841,3.689-2.841a3.392,3.392,0,0,1,3.392,2.586,3.547,3.547,0,0,1,3.6-2.586c2.883,0,3.858,2.5,3.858,5.6V53.972h-3.985Z" transform="translate(-231.703 -38.073)"/>
        <path id="Path_24" data-name="Path 24" class="cls-3" d="M250.083,54.1h-4.409V44.26c0-1.484-.424-2.247-1.314-2.247-1.272,0-1.4,1.357-1.4,1.95V54.054H238.55V44.26c0-1.018-.212-2.247-1.187-2.247-1.06,0-1.526,1.018-1.526,3.1v8.946h-4.409V41.546c0-1.569-.042-2.5-.085-3.222l-.042-.212h4.028v.212c.042.466.085,1.018.085,1.738a3.668,3.668,0,0,1,3.561-2.162,3.422,3.422,0,0,1,3.392,2.247,3.631,3.631,0,0,1,3.6-2.247c2.671,0,4.07,2.035,4.07,5.851V54.1Zm-3.985-.424h3.562V43.666c0-3.6-1.23-5.427-3.646-5.427a3.292,3.292,0,0,0-3.392,2.459l-.212.509-.17-.551a3.107,3.107,0,0,0-3.18-2.459c-1.738,0-2.841.848-3.477,2.714l-.042.127h-.424V40.91c0-.975-.042-1.781-.085-2.374h-3.18c.042.721.085,1.611.085,3.053V53.672H235.5V45.15c0-2.332.678-3.519,1.95-3.519.594,0,1.611.339,1.611,2.671v9.37h3.562V44.005c0-1.484.678-2.374,1.823-2.374.763,0,1.738.466,1.738,2.671v9.37Z" transform="translate(-231.3 -37.9)"/>
      </g>
      <g id="Group_18" data-name="Group 18" transform="translate(15.052 6.826)">
        <path id="Path_25" data-name="Path 25" d="M135.893,51.138c0,1.484.042,2.459.085,3.265h-3.6c-.042-.678-.085-1.569-.085-2.586h-.042c-.594,1.7-1.611,2.841-3.689,2.841-2.883,0-3.858-2.5-3.858-5.639V38.842h3.985v9.582c0,1.95.721,2.459,1.526,2.459,1.272,0,1.738-1.314,1.738-3.307V38.8h3.985V51.138Z" transform="translate(-124.446 -38.588)"/>
        <path id="Path_26" data-name="Path 26" class="cls-3" d="M128.17,54.539c-2.671,0-4.07-2.035-4.07-5.851V38.3h4.409v9.794c0,2.247.975,2.247,1.314,2.247,1.018,0,1.526-1.018,1.526-3.1V38.3h4.409V50.808c0,1.526.042,2.459.085,3.222l.042.212h-4.028V54.03c-.042-.424-.085-1.018-.085-1.738A3.711,3.711,0,0,1,128.17,54.539Zm-3.6-15.815v9.964c0,3.6,1.23,5.427,3.646,5.427,1.738,0,2.841-.848,3.477-2.714l.042-.127h.424v.212c0,.975.042,1.823.085,2.374h3.18c-.042-.721-.085-1.611-.085-3.053V38.724h-3.562v8.522c0,.89,0,3.519-1.95,3.519-.806,0-1.738-.466-1.738-2.671v-9.37Z" transform="translate(-124.1 -38.3)"/>
      </g>
      <g id="Group_19" data-name="Group 19" transform="translate(27.517 6.614)">
        <path id="Path_27" data-name="Path 27" d="M154.185,41.719c0-1.484-.042-2.459-.085-3.265h3.6c.042.933.085,1.866.085,2.8h.042c.806-1.654,1.357-3.053,3.646-3.053h.594v4.367a4.121,4.121,0,0,0-1.314-.17c-2.29,0-2.586,2.374-2.586,4.664v6.953h-3.985Z" transform="translate(-153.846 -38.03)"/>
        <path id="Path_28" data-name="Path 28" class="cls-3" d="M158.037,54.039h-4.409V41.489c0-1.569-.042-2.5-.085-3.222l-.042-.212h4.07v.212c0,.466.042.89.042,1.357a3.648,3.648,0,0,0,.042.678c.678-1.357,1.4-2.5,3.519-2.5h.806v4.876l-.254-.085a3.7,3.7,0,0,0-1.272-.17c-2.078,0-2.374,2.12-2.374,4.452v7.165Zm-3.986-.424h3.562V46.831c0-2.417.339-4.876,2.8-4.876a3.933,3.933,0,0,1,1.1.127V38.224h-.382c-2.035,0-2.586,1.145-3.35,2.714l-.17.339h-.382v-.212c0-.466-.042-.975-.042-1.442,0-.382-.042-.763-.042-1.145h-3.18c.042.721.085,1.611.085,3.053V53.615Z" transform="translate(-153.5 -37.8)"/>
      </g>
      <g id="Group_20" data-name="Group 20" transform="translate(0 1.526)">
        <path id="Path_29" data-name="Path 29" d="M89.1,26.3h6.233c3.943,0,7.844,2.756,7.844,10.6,0,7.208-3.943,10.261-8.353,10.261H89.1Zm4.113,17.256h1.314c2.968,0,4.325-2.8,4.325-6.614,0-4.325-1.4-6.953-4.579-6.953h-1.06Z" transform="translate(-88.888 -26.088)"/>
        <path id="Path_30" data-name="Path 30" class="cls-3" d="M94.536,47.127H88.6V25.8h6.445c1.908,0,8.056.763,8.056,10.812C103.1,44.371,98.649,47.127,94.536,47.127ZM89.024,46.7h5.469c6.021,0,8.141-5.173,8.141-10.049,0-6.529-2.841-10.388-7.632-10.388H89.024Zm5.215-3.222H92.713V29.489h1.272c3.138,0,4.791,2.5,4.791,7.165C98.776,40.979,97.122,43.48,94.239,43.48Zm-1.1-.424h1.1c2.629,0,4.113-2.332,4.113-6.4,0-4.494-1.484-6.741-4.367-6.741h-.848Z" transform="translate(-88.6 -25.8)"/>
      </g>
    </g>
    <g id="Group_36" data-name="Group 36" transform="translate(117.784 9.407)">
      <g id="Group_28" data-name="Group 28">
        <g id="Group_22" data-name="Group 22" transform="translate(0 1.018)">
          <path id="Path_31" data-name="Path 31" class="cls-4" d="M278.8,25.7h5c2.841,0,4.791,1.654,4.791,5.469,0,2.714-1.314,4.537-3.1,4.876v.085c.594.127,1.272.466,1.781,2.417l2.078,7.929H286.22l-1.569-6.784c-.382-1.654-1.145-2.162-2.247-2.162h-.678v8.946H278.8Zm4.155,9.073c1.569,0,2.629-1.06,2.629-3.138,0-2.374-.975-2.968-2.629-2.968h-1.187v6.148h1.187Z" transform="translate(-278.376 -25.234)"/>
          <path id="Path_32" data-name="Path 32" class="cls-3" d="M277.8,46.266V24.6h5.427c3.307,0,5.215,2.162,5.215,5.893,0,2.374-.975,4.24-2.5,5a4.452,4.452,0,0,1,1.187,2.29l2.247,8.437h-4.028l-1.7-7.038c-.382-1.611-1.1-1.866-1.823-1.866h-.254v8.946Zm.848-20.775V45.46h2.078V36.514h1.1c1.4,0,2.247.806,2.629,2.5l1.526,6.445h2.247l-1.95-7.377c-.509-1.908-1.1-2.035-1.442-2.12l-.339-.085v-.806l.339-.085c1.7-.339,2.756-2.078,2.756-4.452,0-3.307-1.526-5.045-4.367-5.045Zm3.731,9.073h-1.611v-7h1.611c2.12,0,3.053,1.018,3.053,3.392C285.432,33.207,284.287,34.564,282.379,34.564Zm-.763-.848h.763c1.4,0,2.2-.975,2.2-2.714,0-2.162-.763-2.544-2.2-2.544h-.763Z" transform="translate(-277.8 -24.6)"/>
        </g>
        <g id="Group_23" data-name="Group 23" transform="translate(11.151 6.275)">
          <path id="Path_33" data-name="Path 33" class="cls-4" d="M314.089,52.84a7,7,0,0,1-3.519.975c-3.816,0-5.469-3.562-5.469-7.674,0-4.579,1.866-8.141,4.876-8.141,2.544,0,4.749,1.95,4.749,8.183V46.9H307.9c0,2.629.806,4.2,3.01,4.2a4,4,0,0,0,3.1-1.187Zm-2.162-8.268c0-2.714-.678-4.07-1.993-4.07-1.484,0-2.12,2.035-2.12,4.07Z" transform="translate(-304.676 -37.576)"/>
          <path id="Path_34" data-name="Path 34" class="cls-3" d="M309.993,53.663c-3.646,0-5.893-3.1-5.893-8.1,0-5.045,2.162-8.565,5.3-8.565,2.332,0,5.173,1.484,5.173,8.607v1.145h-6.826a5.037,5.037,0,0,0,.594,2.417,2.179,2.179,0,0,0,1.993.933h0a3.534,3.534,0,0,0,2.8-1.06l.678-.636.212,4.113-.212.127A8.74,8.74,0,0,1,309.993,53.663ZM309.4,37.848c-2.629,0-4.452,3.18-4.452,7.717,0,6.741,3.858,7.25,5.045,7.25a6.7,6.7,0,0,0,3.1-.806L313,50.186a4.6,4.6,0,0,1-2.714.763h0a2.889,2.889,0,0,1-2.671-1.314,5.962,5.962,0,0,1-.763-3.307V45.9h6.826v-.3C313.682,42.088,312.961,37.848,309.4,37.848Zm-2.544,6.572V44c0-2.756.975-4.494,2.544-4.494,1.1,0,2.417.763,2.417,4.494v.424Zm2.544-4.07c-1.06,0-1.611,1.569-1.7,3.222h3.222C310.884,42,310.587,40.35,309.4,40.35Z" transform="translate(-304.1 -37)"/>
        </g>
        <g id="Group_24" data-name="Group 24" transform="translate(21.623 6.275)">
          <path id="Path_35" data-name="Path 35" class="cls-4" d="M330.421,55.977a6.435,6.435,0,0,0,3.477,1.314c2.671,0,3.138-2.417,3.138-4.833V51.016h-.042c-.466,1.187-1.272,2.586-3.138,2.586-1.654,0-4.155-1.442-4.155-7.632,0-4.24,1.187-7.971,4.282-7.971,1.738,0,2.544,1.272,3.138,2.629h.085c0-.806.085-1.569.085-2.374h2.586c-.042.806-.085,1.611-.085,2.417v11.32c0,4.791-1.145,8.225-5.469,8.225a10.192,10.192,0,0,1-4.07-.933Zm4.113-5.13c1.781,0,2.5-1.654,2.5-5.173,0-3.222-.933-4.961-2.29-4.918-1.484.042-2.078,1.823-2.078,4.961C332.668,49.363,333.558,50.847,334.533,50.847Z" transform="translate(-329.318 -37.576)"/>
          <path id="Path_36" data-name="Path 36" class="cls-3" d="M333.8,60.023a10.141,10.141,0,0,1-4.24-.975l-.254-.127.212-4.325.636.466a5.813,5.813,0,0,0,3.265,1.23c1.866,0,2.671-1.272,2.714-4.24a3.324,3.324,0,0,1-2.756,1.4c-1.06,0-4.579-.594-4.579-8.056,0-5.342,1.7-8.395,4.706-8.395a3.3,3.3,0,0,1,2.841,1.611v-.042c0-.3.042-.636.042-.933v-.424h3.434l-.042.466c-.042.806-.085,1.611-.085,2.374v11.32C339.7,59.132,336.3,60.023,333.8,60.023Zm-3.646-1.611a9.28,9.28,0,0,0,3.646.806c3.519,0,5.045-2.332,5.045-7.8V40.1c0-.678.042-1.314.085-1.993h-1.7a2.418,2.418,0,0,1-.042.551c-.042.466-.042.933-.042,1.4v.424h-.806l-.127-.254c-.636-1.442-1.357-2.374-2.756-2.374-3.477,0-3.858,5.257-3.858,7.547,0,6.7,2.841,7.208,3.731,7.208,1.272,0,2.12-.721,2.714-2.332l.085-.254h.763v1.866c0,1.442,0,5.257-3.562,5.257a6.127,6.127,0,0,1-3.1-.975Zm3.858-7.717h0c-1.442,0-2.29-2.078-2.29-5.554,0-2.29.254-5.342,2.5-5.385a2.094,2.094,0,0,1,1.442.594c.848.848,1.314,2.459,1.314,4.749C336.941,47.727,336.6,50.695,334.015,50.695Zm.212-10.049h0c-.424,0-1.7.042-1.7,4.537,0,3.731.933,4.706,1.442,4.706,1.018,0,2.078-.551,2.078-4.749,0-1.993-.382-3.477-1.06-4.155A1.062,1.062,0,0,0,334.227,40.646Z" transform="translate(-328.8 -37)"/>
        </g>
        <g id="Group_25" data-name="Group 25" transform="translate(33.453)">
          <path id="Path_37" data-name="Path 37" class="cls-4" d="M357.7,23.2h2.926v3.646H357.7Zm.042,6.487h2.841V45.035h-2.841Z" transform="translate(-357.276 -22.776)"/>
          <path id="Path_38" data-name="Path 38" class="cls-3" d="M356.742,44.883v-16.2h3.689v16.2Zm.848-15.348v14.5h1.993v-14.5Zm-.89-2.883V22.2h3.773v4.494Zm.848-3.6v2.8h2.078v-2.8Z" transform="translate(-356.7 -22.2)"/>
        </g>
        <g id="Group_26" data-name="Group 26" transform="translate(37.82 6.275)">
          <path id="Path_39" data-name="Path 39" class="cls-4" d="M373.215,38c2.417,0,5.173,1.654,5.173,7.886,0,6.445-2.8,7.929-5.173,7.929-2.417,0-5.215-1.484-5.215-7.929C368,39.611,370.8,38,373.215,38Zm0,13.186c1.823,0,2.247-2.756,2.247-5.3s-.424-5.257-2.247-5.257-2.29,2.714-2.29,5.257C370.968,48.473,371.392,51.186,373.215,51.186Z" transform="translate(-367.576 -37.576)"/>
          <path id="Path_40" data-name="Path 40" class="cls-3" d="M372.639,53.663c-2.12,0-5.639-1.1-5.639-8.353,0-7.5,3.943-8.31,5.639-8.31h0a4.823,4.823,0,0,1,3.816,1.738c1.187,1.442,1.781,3.646,1.781,6.572,0,3.01-.594,5.257-1.781,6.657A4.827,4.827,0,0,1,372.639,53.663Zm0-15.815c-1.781,0-4.791.975-4.791,7.462,0,4.918,1.654,7.5,4.791,7.5a4,4,0,0,0,3.18-1.4c1.06-1.23,1.611-3.307,1.611-6.105,0-2.714-.551-4.749-1.611-6.021a4.082,4.082,0,0,0-3.18-1.442Zm0,13.186h0c-1.23,0-2.714-.975-2.714-5.724,0-3.773.89-5.681,2.714-5.681h0c.721,0,1.654.339,2.2,1.95a12.32,12.32,0,0,1,.466,3.731Q375.31,51.034,372.639,51.034Zm0-10.557h0c-1.611,0-1.866,3.053-1.866,4.833,0,1.823.254,4.876,1.866,4.876,1.526,0,1.823-2.671,1.823-4.876a10.9,10.9,0,0,0-.424-3.477C373.614,40.477,372.893,40.477,372.639,40.477Z" transform="translate(-367 -37)"/>
        </g>
        <g id="Group_27" data-name="Group 27" transform="translate(49.31 6.275)">
          <path id="Path_41" data-name="Path 41" class="cls-4" d="M395.285,40.756c0-.933-.042-1.866-.085-2.544h2.671c.042.763.085,1.569.085,2.374H398c.424-.933,1.23-2.586,3.137-2.586,2.671,0,3.477,2.586,3.477,5.681V53.56h-2.841v-9.2c0-2.374-.466-3.35-1.611-3.35-1.484,0-2.035,1.654-2.035,3.6V53.56h-2.841Z" transform="translate(-394.734 -37.576)"/>
          <path id="Path_42" data-name="Path 42" class="cls-3" d="M394.227,53.408V40.18c0-1.06-.042-1.908-.085-2.5l-.042-.466h3.562v.424c0,.3.042.594.042.89A3.407,3.407,0,0,1,400.545,37h0a3.35,3.35,0,0,1,3.138,1.908,9.462,9.462,0,0,1,.806,4.2v10.3H400.8V43.784c0-2.671-.636-2.926-1.187-2.926-1.4,0-1.611,1.993-1.611,3.18v9.37Zm.848-13.228V52.56h1.993V44.038c0-3.519,1.526-4.028,2.459-4.028,1.823,0,2.035,1.908,2.035,3.773V52.56h1.993V43.105a8.42,8.42,0,0,0-.678-3.816,2.467,2.467,0,0,0-2.374-1.442h0c-1.526,0-2.247,1.187-2.756,2.332l-.382-.17v.424h-.636l.17-.424c0-.466-.042-.933-.042-1.4a2.065,2.065,0,0,0-.042-.509h-1.781c.042.551.042,1.23.042,2.078Z" transform="translate(-394.1 -37)"/>
        </g>
      </g>
      <g id="Group_35" data-name="Group 35" transform="translate(0.636 0.466)">
        <g id="Group_29" data-name="Group 29" transform="translate(0 1.06)">
          <path id="Path_43" data-name="Path 43" class="cls-4" d="M279.3,25.8h5c2.841,0,4.791,1.654,4.791,5.469,0,2.714-1.314,4.537-3.1,4.876v.085c.594.127,1.272.466,1.781,2.417l2.078,7.929H286.72l-1.569-6.784c-.382-1.654-1.145-2.162-2.247-2.162h-.678v8.946H279.3Zm4.155,9.073c1.569,0,2.629-1.06,2.629-3.138,0-2.374-.975-2.968-2.629-2.968h-1.187v6.148h1.187Z" transform="translate(-279.3 -25.8)"/>
        </g>
        <g id="Group_30" data-name="Group 30" transform="translate(11.151 6.275)">
          <path id="Path_44" data-name="Path 44" class="cls-4" d="M314.589,52.94a7,7,0,0,1-3.519.975c-3.816,0-5.469-3.562-5.469-7.674,0-4.579,1.866-8.141,4.876-8.141,2.544,0,4.749,1.95,4.749,8.183V47H308.4c0,2.629.806,4.2,3.01,4.2a4,4,0,0,0,3.1-1.187Zm-2.12-8.268c0-2.714-.678-4.07-1.993-4.07-1.484,0-2.12,2.035-2.12,4.07Z" transform="translate(-305.6 -38.1)"/>
        </g>
        <g id="Group_31" data-name="Group 31" transform="translate(21.581 6.275)">
          <path id="Path_45" data-name="Path 45" class="cls-4" d="M330.921,56.077a6.435,6.435,0,0,0,3.477,1.314c2.671,0,3.138-2.417,3.138-4.833V51.116h-.042c-.466,1.187-1.272,2.586-3.138,2.586-1.654,0-4.155-1.442-4.155-7.632,0-4.24,1.187-7.971,4.282-7.971,1.738,0,2.544,1.272,3.138,2.629h.085c0-.806.085-1.569.085-2.374h2.586c-.042.806-.085,1.611-.085,2.417v11.32c0,4.791-1.145,8.225-5.469,8.225a10.192,10.192,0,0,1-4.07-.933Zm4.113-5.088c1.781,0,2.5-1.654,2.5-5.173,0-3.222-.933-4.961-2.29-4.918-1.484.042-2.078,1.823-2.078,4.961C333.168,49.463,334.058,50.989,335.033,50.989Z" transform="translate(-330.2 -38.1)"/>
        </g>
        <g id="Group_32" data-name="Group 32" transform="translate(33.453)">
          <path id="Path_46" data-name="Path 46" class="cls-4" d="M358.2,23.3h2.926v3.646H358.2Zm.042,6.529h2.841V45.178h-2.841Z" transform="translate(-358.2 -23.3)"/>
        </g>
        <g id="Group_33" data-name="Group 33" transform="translate(37.82 6.275)">
          <path id="Path_47" data-name="Path 47" class="cls-4" d="M373.715,38.1c2.417,0,5.173,1.654,5.173,7.886,0,6.445-2.8,7.929-5.173,7.929-2.417,0-5.215-1.484-5.215-7.929C368.5,39.754,371.3,38.1,373.715,38.1Zm0,13.186c1.823,0,2.247-2.756,2.247-5.3s-.424-5.257-2.247-5.257-2.29,2.714-2.29,5.257C371.468,48.573,371.892,51.286,373.715,51.286Z" transform="translate(-368.5 -38.1)"/>
        </g>
        <g id="Group_34" data-name="Group 34" transform="translate(49.352 6.275)">
          <path id="Path_48" data-name="Path 48" class="cls-4" d="M395.785,40.856c0-.933-.042-1.866-.085-2.544h2.671c.042.763.085,1.569.085,2.374h.042c.424-.933,1.23-2.586,3.138-2.586,2.671,0,3.477,2.586,3.477,5.681V53.66h-2.841v-9.2c0-2.374-.466-3.35-1.611-3.35-1.484,0-2.035,1.654-2.035,3.6V53.66h-2.841Z" transform="translate(-395.7 -38.1)"/>
        </g>
      </g>
    </g>
  </g>
</svg>
